<?xml version="1.0" encoding="iso-8859-1"?>
<!-- Generator: Adobe Illustrator 19.0.0, SVG Export Plug-In . SVG Version: 6.00 Build 0)  -->
<svg xmlns="http://www.w3.org/2000/svg" xmlns:xlink="http://www.w3.org/1999/xlink" version="1.1" id="Layer_1" x="0px" y="0px" viewBox="0 0 512 512" style="enable-background:new 0 0 512 512;" xml:space="preserve" width="512px" height="512px">
<g>
	<g>
		<rect x="33.391" y="33.391" width="33.391" height="33.391" fill="#FFFFFF"/>
	</g>
</g>
<g>
	<g>
		<rect x="445.217" y="33.391" width="33.391" height="33.391" fill="#FFFFFF"/>
	</g>
</g>
<g>
	<g>
		<rect x="33.391" y="445.217" width="33.391" height="33.391" fill="#FFFFFF"/>
	</g>
</g>
<g>
	<g>
		<rect x="445.217" y="445.217" width="33.391" height="33.391" fill="#FFFFFF"/>
	</g>
</g>
<g>
	<g>
		<rect y="66.783" width="33.391" height="378.435" fill="#FFFFFF"/>
	</g>
</g>
<g>
	<g>
		<rect x="478.609" y="66.783" width="33.391" height="378.435" fill="#FFFFFF"/>
	</g>
</g>
<g>
	<g>
		<rect x="66.783" width="378.435" height="33.391" fill="#FFFFFF"/>
	</g>
</g>
<g>
	<g>
		<rect x="66.783" y="478.609" width="378.435" height="33.391" fill="#FFFFFF"/>
	</g>
</g>
<g>
	<g>
		<rect x="122.435" y="189.217" width="33.391" height="133.565" fill="#FFFFFF"/>
	</g>
</g>
<g>
	<g>
		<rect x="356.174" y="189.217" width="33.391" height="133.565" fill="#FFFFFF"/>
	</g>
</g>
<g>
	<g>
		<rect x="189.217" y="122.435" width="133.565" height="33.391" fill="#FFFFFF"/>
	</g>
</g>
<g>
	<g>
		<rect x="189.217" y="356.174" width="133.565" height="33.391" fill="#FFFFFF"/>
	</g>
</g>
<g>
	<g>
		<rect x="155.826" y="155.826" width="33.391" height="33.391" fill="#FFFFFF"/>
	</g>
</g>
<g>
	<g>
		<rect x="322.783" y="155.826" width="33.391" height="33.391" fill="#FFFFFF"/>
	</g>
</g>
<g>
	<g>
		<rect x="155.826" y="322.783" width="33.391" height="33.391" fill="#FFFFFF"/>
	</g>
</g>
<g>
	<g>
		<rect x="322.783" y="322.783" width="33.391" height="33.391" fill="#FFFFFF"/>
	</g>
</g>
<g>
	<g>
		<rect x="378.435" y="89.044" width="44.522" height="44.522" fill="#FFFFFF"/>
	</g>
</g>
<g>
</g>
<g>
</g>
<g>
</g>
<g>
</g>
<g>
</g>
<g>
</g>
<g>
</g>
<g>
</g>
<g>
</g>
<g>
</g>
<g>
</g>
<g>
</g>
<g>
</g>
<g>
</g>
<g>
</g>
</svg>
