<?xml version="1.0" encoding="iso-8859-1"?>
<!-- Generator: Adobe Illustrator 19.0.0, SVG Export Plug-In . SVG Version: 6.00 Build 0)  -->
<svg xmlns="http://www.w3.org/2000/svg" xmlns:xlink="http://www.w3.org/1999/xlink" version="1.1" id="Layer_1" x="0px" y="0px" viewBox="0 0 512 512" style="enable-background:new 0 0 512 512;" xml:space="preserve" width="512px" height="512px">
<g>
	<g>
		<rect x="256" y="27.826" width="122.435" height="33.391" fill="#FFFFFF"/>
	</g>
</g>
<g>
	<g>
		<polygon points="100.174,317.217 100.174,384 133.565,384 133.565,350.609 166.957,350.609 166.957,317.217   " fill="#FFFFFF"/>
	</g>
</g>
<g>
	<g>
		<polygon points="66.783,450.783 66.783,417.391 33.391,417.391 33.391,484.174 345.043,484.174 345.043,450.783   " fill="#FFFFFF"/>
	</g>
</g>
<g>
	<g>
		<rect x="222.609" y="61.217" width="33.391" height="33.391" fill="#FFFFFF"/>
	</g>
</g>
<g>
	<g>
		<polygon points="189.217,94.609 189.217,161.391 144.696,161.391 144.696,194.783 222.609,194.783 222.609,94.609   " fill="#FFFFFF"/>
	</g>
</g>
<g>
	<g>
		<rect x="378.435" y="61.217" width="33.391" height="33.391" fill="#FFFFFF"/>
	</g>
</g>
<g>
	<g>
		<polygon points="445.217,161.391 445.217,94.609 411.826,94.609 411.826,194.783 478.609,194.783 478.609,228.174 512,228.174     512,161.391   " fill="#FFFFFF"/>
	</g>
</g>
<g>
	<g>
		<rect x="378.435" y="384" width="33.391" height="33.391" fill="#FFFFFF"/>
	</g>
</g>
<g>
	<g>
		<rect x="66.783" y="384" width="33.391" height="33.391" fill="#FFFFFF"/>
	</g>
</g>
<g>
	<g>
		<rect x="345.043" y="417.391" width="33.391" height="33.391" fill="#FFFFFF"/>
	</g>
</g>
<g>
	<g>
		<rect x="445.217" y="228.174" width="33.391" height="33.391" fill="#FFFFFF"/>
	</g>
</g>
<g>
	<g>
		<rect x="411.826" y="261.565" width="33.391" height="122.435" fill="#FFFFFF"/>
	</g>
</g>
<g>
	<g>
		<rect x="100.174" y="128" width="44.522" height="33.391" fill="#FFFFFF"/>
	</g>
</g>
<g>
	<g>
		<rect x="66.783" y="94.609" width="33.391" height="33.391" fill="#FFFFFF"/>
	</g>
</g>
<g>
	<g>
		<polygon points="0,61.217 0,250.435 33.391,250.435 33.391,94.609 66.783,94.609 66.783,61.217   " fill="#FFFFFF"/>
	</g>
</g>
<g>
	<g>
		<rect x="33.391" y="250.435" width="33.391" height="33.391" fill="#FFFFFF"/>
	</g>
</g>
<g>
	<g>
		<rect x="66.783" y="283.826" width="33.391" height="33.391" fill="#FFFFFF"/>
	</g>
</g>
<g>
</g>
<g>
</g>
<g>
</g>
<g>
</g>
<g>
</g>
<g>
</g>
<g>
</g>
<g>
</g>
<g>
</g>
<g>
</g>
<g>
</g>
<g>
</g>
<g>
</g>
<g>
</g>
<g>
</g>
</svg>
